<svg id="avontuur" xmlns="http://www.w3.org/2000/svg" viewBox="0 0 600 600"><defs><style>.cls-1,.cls-2,.cls-4,.cls-5{fill:#fff;}.cls-1,.cls-2,.cls-4,.cls-5,.cls-9{stroke:#1a1a1a;}.cls-1,.cls-2,.cls-3,.cls-4,.cls-5,.cls-8,.cls-9{stroke-miterlimit:10;}.cls-1{stroke-width:31px;}.cls-2{stroke-width:26px;}.cls-3,.cls-6,.cls-7,.cls-8{fill:#1a1a1a;}.cls-3,.cls-8{stroke:#fff;}.cls-3{stroke-width:3px;}.cls-4{stroke-width:10px;}.cls-5{stroke-width:7px;}.cls-7{font-size:68.69px;font-family:Avenir-Black, Avenir;font-weight:800;}.cls-9{fill:none;stroke-width:13px;}</style></defs><title>avontuur</title><ellipse class="cls-1" cx="300.21" cy="324.45" rx="256.21" ry="253.36"/><ellipse class="cls-2" cx="300.21" cy="325.16" rx="211.71" ry="215.8"/><g id="naald"><polygon class="cls-3" points="300.33 325.54 356.09 324.47 329.2 439.11 302.32 553.75 273.45 440.18 244.58 326.61 300.33 325.54"/><polygon class="cls-3" points="299.25 323.63 243.5 324.69 270.38 210.06 297.26 95.42 326.13 208.99 355 322.56 299.25 323.63"/><ellipse class="cls-4" cx="300.56" cy="325.22" rx="44.5" ry="45.36"/><ellipse class="cls-5" cx="300.56" cy="325.22" rx="25.03" ry="25.51"/></g><polygon class="cls-6" points="342.07 228.26 330.91 223.86 345.63 201.98 360.36 180.1 356.8 206.38 353.24 232.66 342.07 228.26"/><polygon class="cls-6" points="216.1 260.73 224.58 252.11 202.45 238.14 180.32 224.17 193.98 246.76 207.63 269.35 216.1 260.73"/><polygon class="cls-6" points="393.08 388.59 384.6 397.2 406.73 411.18 428.86 425.15 415.21 402.56 401.55 379.97 393.08 388.59"/><polygon class="cls-6" points="251.9 430.98 263.06 435.38 248.33 457.26 233.61 479.14 237.17 452.86 240.73 426.57 251.9 430.98"/><text class="cls-7" transform="matrix(1.02, -0.41, 0.36, 0.93, 191.97, 71.84)">N</text><polygon class="cls-8" points="394.79 290.11 387.47 270.55 440.39 261.17 493.31 251.79 447.71 280.73 402.11 309.67 394.79 290.11"/><polygon class="cls-8" points="199.86 364.87 207.18 384.43 154.26 393.81 101.34 403.18 146.94 374.25 192.53 345.31 199.86 364.87"/><ellipse class="cls-9" cx="299.86" cy="326.93" rx="107.77" ry="109.85"/></svg>