<svg id="avontuur" xmlns="http://www.w3.org/2000/svg" viewBox="0 0 600 600"><defs><style>.cls-1,.cls-2,.cls-8,.cls-9{fill:#fff;}.cls-1,.cls-2,.cls-7,.cls-8,.cls-9{stroke:#1a1a1a;}.cls-1,.cls-2,.cls-3,.cls-6,.cls-7,.cls-8,.cls-9{stroke-miterlimit:10;}.cls-1{stroke-width:31px;}.cls-2{stroke-width:26px;}.cls-3,.cls-4,.cls-5,.cls-6{fill:#1a1a1a;}.cls-3,.cls-6{stroke:#fff;}.cls-3{stroke-width:3px;}.cls-5{font-size:65.42px;font-family:Avenir-Black, Avenir;font-weight:800;}.cls-7{fill:none;stroke-width:13px;}.cls-8{stroke-width:10px;}.cls-9{stroke-width:7px;}</style></defs><title>avontuur</title><ellipse class="cls-1" cx="302" cy="310.71" rx="244" ry="241.29"/><ellipse class="cls-2" cx="302" cy="311.39" rx="201.62" ry="205.51"/><polygon class="cls-3" points="302.35 311.58 353.18 296.22 358.11 408.25 363.04 520.28 307.28 423.61 251.51 326.94 302.35 311.58"/><polygon class="cls-3" points="300.86 310.11 250.02 325.47 245.09 213.44 240.16 101.41 295.93 198.08 351.69 294.75 300.86 310.11"/><polygon class="cls-4" points="341.87 219.11 331.24 214.91 345.26 194.08 359.28 173.24 355.89 198.27 352.5 223.3 341.87 219.11"/><polygon class="cls-4" points="221.9 250.03 229.97 241.82 208.9 228.52 187.83 215.21 200.83 236.73 213.83 258.24 221.9 250.03"/><polygon class="cls-4" points="390.44 371.8 382.37 380 403.45 393.31 424.52 406.61 411.52 385.1 398.51 363.59 390.44 371.8"/><polygon class="cls-4" points="255.99 412.17 266.62 416.36 252.6 437.2 238.57 458.03 241.97 433 245.36 407.97 255.99 412.17"/><text class="cls-5" transform="matrix(1.02, -0.41, 0.36, 0.93, 198.92, 70.14)">N</text><polygon class="cls-6" points="392.08 278.01 385.1 259.38 435.5 250.45 485.9 241.52 442.47 269.08 399.05 296.64 392.08 278.01"/><polygon class="cls-6" points="206.43 349.21 213.4 367.84 163 376.77 112.61 385.7 156.03 358.14 199.46 330.58 206.43 349.21"/><ellipse class="cls-7" cx="301.67" cy="313.08" rx="102.63" ry="104.61"/><polygon class="cls-4" points="302.4 311.99 343.54 299.56 347.53 390.21 351.52 480.88 306.39 402.64 261.26 324.42 302.4 311.99"/><polygon class="cls-4" points="301.2 310.8 260.06 323.23 256.07 232.56 252.08 141.9 297.21 220.13 342.34 298.36 301.2 310.8"/><ellipse class="cls-8" cx="302.33" cy="312.4" rx="42.38" ry="43.2"/><ellipse class="cls-9" cx="302.33" cy="312.4" rx="23.84" ry="24.3"/></svg>