<svg xmlns="http://www.w3.org/2000/svg" viewBox="0 0 600 600"><defs><style>.cls-1{fill:#1a1a1a;}.cls-2{fill:#999;}.cls-3{fill:#b3b3b3;stroke:#333;stroke-width:8.33px;opacity:0.94;}.cls-3,.cls-4{stroke-miterlimit:10;}.cls-4{fill:none;stroke:#ccc;stroke-width:12.88px;}</style></defs><title>detective</title><g id="detective"><g id="schoen"><path class="cls-1" d="M511.79,294.64c5.1-10.2-1.58-105.93-15.31-137.74C479.8,118.25,417.26,54,379.14,36.16c-20.07-9.41-68.18-15.85-88.43-6.8-16.19,7.23-43.67,34.2-49.31,51-8.79,26.2-9.25,84.5,0,110.54C258,237.58,350.23,357.56,353.64,354.16S511.79,294.64,511.79,294.64Z"/><path class="cls-1" d="M511.06,365.79,381.17,430.68s29.31,102.23,53.38,123.89c17.68,15.91,69.45,18.81,90.75,9.83,15.32-6.46,42.7-48.84,42.7-55.06C568,491.64,511.06,365.79,511.06,365.79Z"/></g><g id="vergrootglas"><rect class="cls-1" x="76.57" y="297.69" width="36.62" height="232.24" transform="translate(-129.74 774.07) rotate(-135.14)"/><rect class="cls-2" x="187.94" y="277.62" width="20.94" height="62.72" transform="translate(121.12 667.95) rotate(-135.14)"/><circle class="cls-3" cx="298.98" cy="205.06" r="116.53"/><path class="cls-4" d="M231.53,200.91c4.93-44.39,49.25-75.84,99.08-70.31"/></g></g></svg>