<svg xmlns="http://www.w3.org/2000/svg" viewBox="0 0 600 600"><defs><style>.cls-1{fill:#1a1a1a;}</style></defs><title>dieren</title><g id="dieren"><path class="cls-1" d="M299.45,338.63c0,55.07,48.52,190.37,0,190.37S123.72,393.7,123.72,338.63s39.34-99.72,87.86-99.72S299.45,283.56,299.45,338.63Z"/><path class="cls-1" d="M475.17,338.63C475.17,393.7,348,529,299.45,529s0-135.3,0-190.37,39.33-99.72,87.86-99.72S475.17,283.56,475.17,338.63Z"/><ellipse class="cls-1" cx="299.45" cy="414.5" rx="104.6" ry="114.5"/><path class="cls-1" d="M512.09,152.82a57.82,57.82,0,1,1-70.32-41.73c11.61-3,17.11-50.17,28.25-50.09C505.51,61.27,507.15,133.48,512.09,152.82Z"/><path class="cls-1" d="M87.64,154.22A57.82,57.82,0,1,0,158,112.49c-11.61-3-17.11-50.18-28.25-50.1C94.22,62.66,92.58,134.88,87.64,154.22Z"/><path class="cls-1" d="M358,168.48c2.34,20.33-25.91,57.88-57.88,57.88a57.87,57.87,0,0,1-57.87-57.88c0-14.39,23.22-31.28,32.07-52.3,10.81-25.63,8.93-54.39,26.5-54.39s9.1,21.88,19.53,47.42C329,130.28,356,151,358,168.48Z"/></g></svg>