<svg xmlns="http://www.w3.org/2000/svg" viewBox="0 0 600 600"><defs><style>.cls-1{fill:#1a1a1a;}.cls-2,.cls-3,.cls-4{fill:#fff;stroke:#1a1a1a;stroke-miterlimit:10;}.cls-2{stroke-width:20px;}.cls-3{stroke-width:35px;}.cls-4{stroke-width:33px;}</style></defs><title>geschiedenis</title><g id="geschiedenis"><rect class="cls-1" x="361.4" y="196" width="187.46" height="28.48"/><path class="cls-2" d="M523.55,210.24H385.92v22.95c0,11.8,137.63,9.18,137.63,0Z"/><rect class="cls-1" x="361.4" y="454.65" width="187.46" height="28.48"/><path class="cls-2" d="M523.55,468.89H385.92V445.94c0-11.8,137.63-9.18,137.63,0Z"/><rect class="cls-3" x="408.46" y="252.55" width="46.87" height="182.72"/><rect class="cls-3" x="455.33" y="252.55" width="46.87" height="182.72"/><rect class="cls-1" x="59.82" y="196.17" width="187.46" height="28.48"/><path class="cls-2" d="M222,210.41H84.34v23c0,11.8,137.63,9.18,137.63,0Z"/><rect class="cls-1" x="59.82" y="454.83" width="187.46" height="28.48"/><path class="cls-2" d="M222,469.07H84.34V446.12c0-11.81,137.63-9.18,137.63,0Z"/><rect class="cls-3" x="106.89" y="252.73" width="46.87" height="182.72"/><rect class="cls-3" x="153.75" y="252.73" width="46.87" height="182.72"/><path class="cls-1" d="M458.23,198.44H569s12-5.4,12-12V130a12,12,0,0,0-12-12H458.23a12,12,0,0,0-12,12v56.44A12,12,0,0,0,458.23,198.44Z"/><path class="cls-1" d="M32,198.44H142.77a12,12,0,0,0,12-12V130a12,12,0,0,0-12-12H32a12,12,0,0,0-12,12v56.44Z"/><path class="cls-4" d="M175,192.31H438.5a12,12,0,0,0,12-12V161c0-6.6,15.6-11.5,9-11.5h-304c-6.6,0,7.54,4.9,7.54,11.5v19.31A12,12,0,0,0,175,192.31Z"/></g></svg>