<svg xmlns="http://www.w3.org/2000/svg" viewBox="0 0 600 600"><defs><style>.cls-1{fill:#1a1a1a;}.cls-2{fill:#fff;}</style></defs><title>griezelen</title><g id="griezelen"><path class="cls-1" d="M301,500c-28,0-54.54-86.06-81-87-28-1-27.45,136.26-84,87-23.28-20.28-14-101.13-14-122.72C122,213.65,202.14,81,301,81Z"/><path class="cls-1" d="M296,500c28,0,54.54-86.06,81-87,28-1,27.45,136.26,84,87,23.28-20.28,14-101.13,14-122.72C475,213.65,394.86,81,296,81Z"/><ellipse class="cls-2" cx="248" cy="222" rx="36" ry="52"/><ellipse class="cls-2" cx="350" cy="222" rx="36" ry="52"/></g></svg>