<svg xmlns="http://www.w3.org/2000/svg" viewBox="0 0 600 600"><defs><style>.cls-1{fill:#1a1a1a;}.cls-2{fill:none;stroke:#1a1a1a;stroke-miterlimit:10;stroke-width:20px;}</style></defs><title>oorlogVerzet</title><g id="oorlogVerzet"><circle class="cls-1" cx="122" cy="105" r="36"/><path class="cls-1" d="M433.59,40.94s-62.83,77-115,39.11c-71.33-51.72-138,53.47-138,53.47L271,305.17c55.65-12.37,25.07-99.7,150.84-37.64C478.35,295.4,517.43,198,517.43,198Z"/><path class="cls-2" d="M76.31,447.5c150.28-20.29,158,51.89,212.48,53.62C328.42,502.38,480.72,498.2,503,531"/><path class="cls-1" d="M178.23,407.48a63.63,63.63,0,0,1-9.42,23.16c-1.78,2.8-3.73,6-6.49,7.95a6.6,6.6,0,0,1-4,1.5,15,15,0,0,1-2-.52c-3.79.58-1.9,2.42-1.06,4,1,1.88,1,4.6,1.34,6.66.62,4.43,1.18,8.88,1.76,13.31l3.78,28.53c.54,4,3.07,7.5,7.5,7.5,3.64,0,8-3.45,7.5-7.5-2.15-16.27-3.34-33.06-6.58-49.15-1.44-7.2-5.87-14.06-13.49-15.67s-15.63,3.91-15.79,12c-.34,16.53,20.16,19,30.59,10.74,11-8.69,18.42-25.07,20.81-38.58,1.68-9.44-12.78-13.49-14.46-4Z"/><path class="cls-1" d="M125.13,390.8c-2.39,16.24-3.56,39.43,9.5,51.85,11.61,11,34,7.23,33.87-11.21,0-7.42-4.86-13.8-12.23-15.21-8.52-1.62-16.22,3.94-21.23,10.27-5.29,6.68-8.47,14.54-11.15,22.56-3.1,9.29-6,18.68-8.91,28s11.55,13.17,14.46,4c3.44-10.86,6.54-21.91,10.51-32.59,1.75-4.7,4-9.51,7.3-13.34,1-1.19,5.61-5,6.15-4.34,1.15,1.45-.82,3.14-2,3.42-4,.93-7.6-3.24-9.13-6.29-4.79-9.51-4.17-22.91-2.67-33.14.6-4-1-8-5.23-9.22-3.53-1-8.64,1.23-9.23,5.24Z"/><path class="cls-1" d="M313.3,454.59a66.25,66.25,0,0,1-8.88,21.93,60.39,60.39,0,0,1-6.7,8.65,29.25,29.25,0,0,1-4.53,4.3c-.2.14-2.88,1.53-2.68,1.36.87-.74-2.59,6.25-2.72,4.18.09,1.4,1.46,3.8,1.8,5.33,1,4.43,1.75,8.93,2.36,13.43a196.4,196.4,0,0,1,1.64,29.09c-.12,9.65,14.88,9.66,15,0,.21-16.15-.5-34.08-5.3-49.63-2.09-6.78-6.93-12.69-14.48-13.07a11.89,11.89,0,0,0-12.66,12.9,14.3,14.3,0,0,0,12.35,12.59c7.75.91,14.2-4,19.27-9.3a79,79,0,0,0,20-37.77c2-9.41-12.42-13.43-14.46-4Z"/><path class="cls-1" d="M249.34,445.42a184.18,184.18,0,0,0,1.93,29.86c1.28,8.75,2.68,18,10.56,23.35,12.14,8.22,39.46,3.92,34.9-15.58-2-8.6-11.37-11.39-19-8.84-7.28,2.44-13,8.55-17.63,14.38-10.85,13.58-16.93,30.05-21.68,46.59-2.67,9.29,11.8,13.26,14.46,4,2.92-10.16,6.23-20.26,11.26-29.59a70.7,70.7,0,0,1,8.57-12.81,56.43,56.43,0,0,1,5.51-5.64c1-.86,4.09-2,4.72-2.85.08-.11.67-.07.7-.13q-1.35-3.18-1.6-1.65c0,.26,0,.31-.11.14a13.38,13.38,0,0,0-1.64.79,11.3,11.3,0,0,1-3.75.46c-4.24-.05-7.47-1.4-8.79-5.57-3.64-11.46-3.68-25-3.46-36.9.17-9.66-14.83-9.66-15,0Z"/><path class="cls-1" d="M371.54,439.86l22.1,36.41c1,1.68,8.16,11.27,6.07,13.55.3-.33-.6-.42-.69-.58a3.7,3.7,0,0,1,.34-4.16c.79-.92.89-1,1.47.29.82,1.81-.39,3.87-1.47,5.3-3.47,4.54-9.53,6.72-14.17,9.75-10.41,6.79-17.31,16.89-24.7,26.63-2.47,3.25-.48,8.36,2.69,10.27,3.83,2.29,7.83.51,10.26-2.7,4.55-6,8.85-12.21,14.37-17.36,5.78-5.4,13.42-8.12,19.41-13.28,5.32-4.58,9.34-11.48,8.83-18.67-.49-7-5.58-13.92-12.6-15.58-16.58-3.94-26,19.45-14.83,30.35a16.24,16.24,0,0,0,19.2,2.23c6.56-4,7.95-12.11,6.11-19-2.36-8.82-8.7-16.83-13.37-24.52l-16.07-26.48c-5-8.24-18-.71-12.95,7.57Z"/><path class="cls-1" d="M434.38,445.07c-8.58,18-17.64,37.62-34.15,49.78l11,4.48c-1.24-4.07.35-6.39,2.73-9.51l.89-.57q1.92-1-2.48-2.4c-.21.38.68,2.7.78,3.12.79,3.38,1.48,6.78,2.1,10.19a211.9,211.9,0,0,1,3.19,38.46c0,9.66,15,9.67,15,0a230.52,230.52,0,0,0-2-31.17c-.66-5-1.46-10-2.45-15-.89-4.49-1.45-9.82-4.09-13.7-5.59-8.21-16.73-4.64-22.5,1.37a23.75,23.75,0,0,0-5.64,23.19c1.28,4.2,7,7.47,11,4.48,18.93-13.93,29.63-34.41,39.53-55.16,4.13-8.67-8.8-16.29-12.95-7.57Z"/><rect class="cls-1" x="202.66" y="126.74" width="26.89" height="296.94" rx="10" transform="translate(-102.93 131.49) rotate(-27.61)"/></g></svg>