<svg xmlns="http://www.w3.org/2000/svg" viewBox="0 0 600 600"><defs><style>.cls-1{fill:#1a1a1a;}.cls-2{fill:none;stroke:#fff;stroke-miterlimit:10;stroke-width:13px;}</style></defs><title>psychologie</title><g id="psychologie"><path class="cls-1" d="M486.61,151C461.89,106.43,458,53,315.08,53c-103.47,0-162.5,49.14-185.15,98-15.32,33-23.7,118,0,145.67,89.85,104.82,54.45,213.73,76.24,238.24,29.58,33.29,171.53,20.42,171.53,20.42,28.59-130.69,92.29-79.53,108.91-85.77,21.78-8.16,11.6-36.65,15-49,2.4-8.81,16.73-23.55,16.33-32.67-.47-10.67-13.61-46.29-12.25-50.37s45.18-7.47,49-24.51c5.21-23.21-42.95-57.44-53.09-79C492.59,215,496.84,169.47,486.61,151Z"/><path class="cls-2" d="M439,152.38s-34-62.62-125.25-62.62c-149.75,0-189.23,144.3-111.63,205.57"/></g></svg>