<svg xmlns="http://www.w3.org/2000/svg" viewBox="0 0 600 600"><defs><style>.cls-1{fill:#1a1a1a;}.cls-2{fill:#fff;}</style></defs><title>spanning</title><g id="spanning"><path class="cls-1" d="M48,459.24c8.49-24,46.65-138.53,53.72-176.7,2.91-15.73-48.06-1.41-63.61-7.07-8.3-3,0-35.34,0-35.34s97.54-18.37,90.47-35.34c-8-19.26-50.85-31.16-29.69-32.51,66.44-4.24,34.48-30.64,49.48-31.1,46.65-1.41,422.66,0,422.66,0v93.3s-63.61,4.24-113.09,0c0,0-1.08,38.07-11.31,41-9.89,2.83-59.37,1.42-59.37,1.42s-9.89,57.95-25.44,66.44c-26.57,14.49-60.6,13.29-121.57,7.06,0,0-37.26,96.15-39.58,130.05,0,0,11.79,28.83,5.66,35.34C206.3,515.78,34,498.87,48,459.24Z"/><path class="cls-2" d="M361.37,282.54c1.83-42.41-47.64-48.06-47.83-47.43-18.57,63.75,20.83,85.11-2.64,79.94-70.68-15.55-30.19-80.74-36.75-79.16-26.77,6.48-46.65,24.71-46.65,46.65,0,27.33,30,49.48,66.94,49.48S360.2,309.84,361.37,282.54Z"/><rect class="cls-2" x="170.96" y="163.8" width="129.04" height="23.2" rx="11"/></g></svg>