<svg xmlns="http://www.w3.org/2000/svg" viewBox="0 0 600 600"><defs><style>.cls-1,.cls-3{fill:#1a1a1a;}.cls-1,.cls-2{stroke:#fff;stroke-miterlimit:10;}.cls-1{stroke-width:18px;}.cls-2{fill:none;stroke-width:13px;}</style></defs><title>sport</title><g id="sport"><circle class="cls-1" cx="225.5" cy="218.5" r="171.5"/><path class="cls-2" d="M175.48,54.42s25.93,162,38.15,205.62c11,39.09,53.26,124.92,53.26,124.92"/><path class="cls-2" d="M81.89,312.26s121.81,8.9,150.73-1.19C362,266,395.43,195.29,395.43,195.29"/><path class="cls-2" d="M311,69.82s15.35,49-.08,83.4c-25.18,56.17-26.63,98.09-21.18,133.53,8.13,52.81,66.64,34.78,66.64,34.78"/><path class="cls-2" d="M72.4,142.54s16.11,54.52,46.28,77.15c49.25,36.93,69.49,62.49,81.9,96.13C219.06,366,169,376.13,169,376.13"/><circle class="cls-3" cx="325.21" cy="485.59" r="28.85"/><path class="cls-3" d="M470.37,378.86c6.75,9-.69,44.06-.69,44.06s52.39,9,50.56,22.67c-2.72,20.31-73.38,29-73.38,29s-75.22,4.67-88.49-13.35c-11.84-16.08,12.07-79,12.07-79s31.09-74.33,51.28-70.8c13.79,2.41,6.32,56.06,6.32,56.06S463.62,369.89,470.37,378.86Z"/></g></svg>