<svg xmlns="http://www.w3.org/2000/svg" viewBox="0 0 600 600"><defs><style>.cls-1{fill:#1a1a1a;}.cls-2{fill:#fff;}</style></defs><title>sprookjes</title><g id="sprookjes"><path class="cls-1" d="M63.87,490.55c0-27.82,40.67-52.35,102.52-66.84,37.12-8.69,1.24-353.3,130-353.3,164.06,0,169.55,67.27,152.65,64.2C307.82,108.93,415.23,305,424.81,408.52c.65,7.1,14.65,18.41,21,20.27,50.8,14.79,83.1,37,83.1,61.76,0,44.52-104.11,80.6-232.54,80.6S63.87,535.07,63.87,490.55Z"/><path class="cls-2" d="M297.84,492.74c36.38,0,143.37-20.52,143.37-14.7l.72,12.35c0,5.82-7.14,29.41-144.09,29.41C149.47,519.8,156.6,495,156.6,489.21L155.89,478C155.89,472.22,261.8,492.71,297.84,492.74Z"/><polygon class="cls-2" points="342.23 344 386.71 343.24 360.26 379 374.73 421.07 332.54 406.97 297 433.72 297.38 389.24 260.95 363.71 303.37 350.33 316.39 307.79 342.23 344"/><polygon class="cls-2" points="310.91 226.71 335.05 256.34 296.84 257.47 276.12 289.59 263.24 253.6 226.29 243.81 256.53 220.44 254.43 182.28 286 203.82 321.64 190.02 310.91 226.71"/><polygon class="cls-1" points="134.88 75.75 194.95 81.9 153.53 125.85 166.25 184.88 111.66 159.07 59.44 189.41 67.12 129.51 22.13 89.22 81.47 78.02 105.88 22.78 134.88 75.75"/></g></svg>