<svg xmlns="http://www.w3.org/2000/svg" viewBox="0 0 600 600"><defs><style>.cls-1{fill:#1a1a1a;}</style></defs><title>vriendschapLiefde</title><g id="vriendschapLiefde"><circle class="cls-1" cx="266.14" cy="174.43" r="52.43"/><rect class="cls-1" x="206.33" y="234.73" width="119.62" height="148.17" rx="18.91" transform="translate(532.29 617.62) rotate(-180)"/><circle class="cls-1" cx="114.47" cy="245.69" r="71.24"/><rect class="cls-1" x="33.19" y="327.64" width="162.56" height="201.36" rx="25.69" transform="translate(228.94 856.64) rotate(-180)"/><path class="cls-1" d="M405,215.73l-.72.93-.75-1Z"/><path class="cls-1" d="M544.49,174.48c-25.37,46-121.91,42.3-139.46,41.25l-1.47-.1-.87-1.19c-10.25-14.29-64.8-94-39.43-140,17.37-31.48,52.18-69,81.87-53.64,37.44,19.39,38.31,43,34.51,57,9.76-10.65,30.23-22.52,66.59-1.18C575.07,93.53,561.86,143,544.49,174.48Z"/><path class="cls-1" d="M407.3,378l-.53.69s-.2-.26-.56-.76Z"/><path class="cls-1" d="M510.93,360.32C492.08,394.47,420.34,391.76,407.3,391l-1.09-.07-.65-.89c-7.61-10.62-48.14-69.87-29.3-104,12.91-23.39,38.78-51.28,60.84-39.86,27.82,14.41,28.47,32,25.64,42.34,7.26-7.91,22.47-16.73,49.49-.87C533.66,300.17,523.84,336.93,510.93,360.32Z"/><path class="cls-1" d="M406.21,377.9l-.95-.07s.11-.29.3-.82Z"/><path class="cls-1" d="M344.62,505.24l-.35.45-.37-.49Z"/><path class="cls-1" d="M412.49,485.17c-12.35,22.36-59.33,20.58-67.87,20.07l-.72,0-.42-.59c-5-6.95-31.53-45.76-19.19-68.12,8.46-15.32,25.4-33.59,39.85-26.1,18.22,9.43,18.64,20.94,16.79,27.72,4.75-5.18,14.71-10.95,32.41-.57C427.37,445.78,420.94,469.85,412.49,485.17Z"/><path class="cls-1" d="M343.9,505.2l-.62-.05.2-.54Z"/></g></svg>